<svg xmlns="http://www.w3.org/2000/svg" xmlns:xlink="http://www.w3.org/1999/xlink" width="100" zoomAndPan="magnify" viewBox="0 0 75 74.999997" height="100" preserveAspectRatio="xMidYMid meet" version="1.0"><defs><clipPath id="2539ebc3cf"><path d="M 0 9.132812 L 75 9.132812 L 75 69.132812 L 0 69.132812 Z M 0 9.132812 " clip-rule="nonzero"/></clipPath><clipPath id="72ca164c0f"><path d="M 11.6875 5.960938 L 56.6875 5.960938 L 56.6875 25.460938 L 11.6875 25.460938 Z M 11.6875 5.960938 " clip-rule="nonzero"/></clipPath><clipPath id="370fed14fa"><path d="M 15 9 L 54 9 L 54 25.460938 L 15 25.460938 Z M 15 9 " clip-rule="nonzero"/></clipPath><clipPath id="ac032222dc"><path d="M 18.03125 0.5 L 32.910156 0.5 L 32.910156 17 L 18.03125 17 Z M 18.03125 0.5 " clip-rule="nonzero"/></clipPath><clipPath id="acc4a79ea5"><path d="M 19 16 L 32 16 L 32 22.140625 L 19 22.140625 Z M 19 16 " clip-rule="nonzero"/></clipPath><clipPath id="0730cc2489"><path d="M 31 17 L 32.910156 17 L 32.910156 19 L 31 19 Z M 31 17 " clip-rule="nonzero"/></clipPath><clipPath id="a2f403531b"><path d="M 33.230469 0.5 L 48.109375 0.5 L 48.109375 17 L 33.230469 17 Z M 33.230469 0.5 " clip-rule="nonzero"/></clipPath><clipPath id="109abf999d"><path d="M 34 16 L 47 16 L 47 22.140625 L 34 22.140625 Z M 34 16 " clip-rule="nonzero"/></clipPath><clipPath id="ac8128ccd4"><path d="M 0.570312 0.5 L 18.15625 0.5 L 18.15625 22.140625 L 0.570312 22.140625 Z M 0.570312 0.5 " clip-rule="nonzero"/></clipPath><clipPath id="1803220ee9"><rect x="0" width="50" y="0" height="23"/></clipPath></defs><path fill="#e5e1cc" d="M 72.042969 20.929688 L 72.042969 54.660156 C 72.042969 55.003906 71.769531 55.28125 71.425781 55.28125 L 70.003906 55.28125 C 69.660156 55.28125 69.382812 55.003906 69.382812 54.660156 L 69.382812 39.203125 C 69.382812 39.160156 69.355469 39.132812 69.316406 39.132812 L 67.34375 39.132812 C 67 39.132812 66.722656 38.859375 66.722656 38.515625 L 66.722656 31.125 C 66.722656 31.125 66.695312 31.058594 66.65625 31.058594 L 64.6875 31.058594 C 64.34375 31.058594 64.070312 30.78125 64.070312 30.4375 L 64.070312 28.433594 C 64.070312 28.433594 64.035156 28.367188 64 28.367188 L 62.027344 28.367188 C 61.683594 28.367188 61.410156 28.089844 61.410156 27.746094 L 61.410156 25.742188 C 61.410156 25.742188 61.382812 25.675781 61.339844 25.675781 L 14.183594 25.675781 C 13.839844 25.675781 13.5625 25.398438 13.5625 25.054688 L 13.5625 12.839844 C 13.5625 12.496094 13.839844 12.21875 14.183594 12.21875 L 28.894531 12.21875 C 29.238281 12.21875 29.511719 12.496094 29.511719 12.839844 L 29.511719 14.84375 C 29.511719 14.84375 29.539062 14.914062 29.582031 14.914062 L 31.554688 14.914062 C 31.898438 14.914062 32.171875 15.1875 32.171875 15.53125 L 32.171875 17.535156 C 32.171875 17.535156 32.199219 17.605469 32.242188 17.605469 L 68.75 17.605469 C 69.09375 17.605469 69.371094 17.878906 69.371094 18.222656 L 69.371094 20.242188 C 69.371094 20.242188 69.398438 20.308594 69.4375 20.308594 L 71.425781 20.308594 C 71.769531 20.308594 72.042969 20.585938 72.042969 20.929688 Z M 68.765625 55.28125 L 66.792969 55.28125 C 66.792969 55.28125 66.722656 55.253906 66.722656 55.210938 L 66.722656 42.445312 C 66.722656 42.101562 66.449219 41.828125 66.105469 41.828125 L 64.136719 41.828125 C 64.097656 41.828125 64.070312 41.800781 64.070312 41.757812 L 64.070312 31.679688 C 64.070312 31.339844 63.789062 31.058594 63.449219 31.058594 L 61.476562 31.058594 C 61.4375 31.058594 61.410156 31.03125 61.410156 30.988281 L 61.410156 28.984375 C 61.410156 28.640625 61.132812 28.367188 60.789062 28.367188 L 3.546875 28.367188 C 3.210938 28.367188 2.929688 28.648438 2.929688 28.984375 L 2.929688 35.824219 C 2.929688 36.167969 3.203125 36.441406 3.546875 36.441406 L 5.519531 36.441406 C 5.5625 36.441406 5.589844 36.46875 5.589844 36.511719 L 5.589844 43.898438 C 5.589844 44.242188 5.863281 44.519531 6.207031 44.519531 L 8.179688 44.519531 C 8.179688 44.519531 8.25 44.546875 8.25 44.585938 L 8.25 51.976562 C 8.25 52.320312 8.523438 52.59375 8.867188 52.59375 L 10.835938 52.59375 C 10.875 52.59375 10.902344 52.621094 10.902344 52.664062 L 10.902344 62.738281 C 10.902344 63.082031 11.179688 63.355469 11.523438 63.355469 L 13.496094 63.355469 C 13.535156 63.355469 13.5625 63.390625 13.5625 63.425781 L 13.5625 65.429688 C 13.5625 65.773438 13.839844 66.046875 14.183594 66.046875 L 68.765625 66.046875 C 69.109375 66.046875 69.382812 65.773438 69.382812 65.429688 L 69.382812 55.898438 C 69.382812 55.554688 69.109375 55.28125 68.765625 55.28125 Z M 68.765625 55.28125 " fill-opacity="1" fill-rule="nonzero"/><g clip-path="url(#2539ebc3cf)"><path fill="#000000" d="M 61.683594 33.820312 L 61.683594 36.375 C 61.683594 36.566406 61.53125 36.71875 61.339844 36.71875 L 58.816406 36.71875 C 58.632812 36.71875 58.472656 36.566406 58.472656 36.375 L 58.472656 34.371094 C 58.472656 34.183594 58.324219 34.027344 58.128906 34.027344 L 50.84375 34.027344 C 50.65625 34.027344 50.5 33.875 50.5 33.679688 L 50.5 31.125 C 50.5 30.941406 50.65625 30.78125 50.84375 30.78125 L 58.679688 30.78125 C 58.871094 30.78125 59.023438 30.941406 59.023438 31.125 L 59.023438 33.128906 C 59.023438 33.324219 59.183594 33.476562 59.367188 33.476562 L 61.339844 33.476562 C 61.53125 33.476562 61.683594 33.632812 61.683594 33.820312 Z M 74.972656 20.367188 L 74.972656 65.980469 C 74.972656 66.171875 74.820312 66.324219 74.628906 66.324219 L 72.664062 66.324219 C 72.46875 66.324219 72.320312 66.476562 72.320312 66.667969 L 72.320312 68.671875 C 72.320312 68.863281 72.160156 69.015625 71.976562 69.015625 L 13.632812 69.015625 C 13.441406 69.015625 13.289062 68.863281 13.289062 68.671875 L 13.289062 66.667969 C 13.289062 66.476562 13.136719 66.324219 12.945312 66.324219 L 10.972656 66.324219 C 10.785156 66.324219 10.628906 66.171875 10.628906 65.980469 L 10.628906 63.976562 C 10.628906 63.789062 10.476562 63.632812 10.285156 63.632812 L 8.316406 63.632812 C 8.125 63.632812 7.972656 63.480469 7.972656 63.289062 L 7.972656 55.898438 C 7.972656 55.714844 7.816406 55.554688 7.628906 55.554688 L 5.65625 55.554688 C 5.464844 55.554688 5.3125 55.402344 5.3125 55.210938 L 5.3125 47.832031 C 5.3125 47.636719 5.164062 47.484375 4.96875 47.484375 L 2.996094 47.484375 C 2.8125 47.484375 2.652344 47.328125 2.652344 47.140625 L 2.652344 39.753906 C 2.652344 39.5625 2.503906 39.410156 2.308594 39.410156 L 0.34375 39.410156 C 0.152344 39.410156 0 39.257812 0 39.066406 L 0 28.433594 C 0 28.25 0.152344 28.089844 0.34375 28.089844 L 2.308594 28.089844 C 2.503906 28.089844 2.652344 27.9375 2.652344 27.746094 L 2.652344 25.742188 C 2.652344 25.558594 2.8125 25.398438 2.996094 25.398438 L 10.285156 25.398438 C 10.476562 25.398438 10.628906 25.246094 10.628906 25.054688 L 10.628906 12.289062 C 10.628906 12.097656 10.785156 11.945312 10.972656 11.945312 L 12.945312 11.945312 C 13.136719 11.945312 13.289062 11.792969 13.289062 11.601562 L 13.289062 9.597656 C 13.289062 9.402344 13.441406 9.253906 13.632812 9.253906 L 29.441406 9.253906 C 29.636719 9.253906 29.785156 9.402344 29.785156 9.597656 L 29.785156 11.601562 C 29.785156 11.792969 29.9375 11.945312 30.128906 11.945312 L 32.105469 11.945312 C 32.289062 11.945312 32.449219 12.097656 32.449219 12.289062 L 32.449219 14.292969 C 32.449219 14.480469 32.597656 14.636719 32.792969 14.636719 L 69.316406 14.636719 C 69.507812 14.636719 69.660156 14.789062 69.660156 14.980469 L 69.660156 17 C 69.660156 17.183594 69.808594 17.34375 70.003906 17.34375 L 71.960938 17.34375 C 72.148438 17.34375 72.304688 17.496094 72.304688 17.6875 L 72.304688 19.675781 C 72.304688 19.863281 72.457031 20.019531 72.648438 20.019531 L 74.628906 20.019531 C 74.820312 20.019531 74.972656 20.171875 74.972656 20.367188 Z M 69.109375 55.898438 C 69.109375 55.714844 68.957031 55.554688 68.765625 55.554688 L 66.792969 55.554688 C 66.605469 55.554688 66.449219 55.402344 66.449219 55.210938 L 66.449219 42.445312 C 66.449219 42.253906 66.296875 42.101562 66.105469 42.101562 L 64.136719 42.101562 C 63.945312 42.101562 63.792969 41.949219 63.792969 41.757812 L 63.792969 31.679688 C 63.792969 31.492188 63.636719 31.332031 63.449219 31.332031 L 61.476562 31.332031 C 61.285156 31.332031 61.132812 31.183594 61.132812 30.988281 L 61.132812 28.984375 C 61.132812 28.800781 60.984375 28.640625 60.789062 28.640625 L 3.546875 28.640625 C 3.363281 28.640625 3.203125 28.800781 3.203125 28.984375 L 3.203125 35.824219 C 3.203125 36.015625 3.363281 36.167969 3.546875 36.167969 L 5.519531 36.167969 C 5.710938 36.167969 5.863281 36.320312 5.863281 36.511719 L 5.863281 43.898438 C 5.863281 44.085938 6.015625 44.242188 6.207031 44.242188 L 8.179688 44.242188 C 8.367188 44.242188 8.523438 44.394531 8.523438 44.585938 L 8.523438 51.976562 C 8.523438 52.160156 8.675781 52.320312 8.867188 52.320312 L 10.835938 52.320312 C 11.027344 52.320312 11.179688 52.472656 11.179688 52.664062 L 11.179688 62.738281 C 11.179688 62.929688 11.335938 63.082031 11.523438 63.082031 L 13.496094 63.082031 C 13.6875 63.082031 13.839844 63.238281 13.839844 63.425781 L 13.839844 65.429688 C 13.839844 65.621094 13.988281 65.773438 14.183594 65.773438 L 68.765625 65.773438 C 68.957031 65.773438 69.109375 65.621094 69.109375 65.429688 Z M 71.769531 20.929688 C 71.769531 20.738281 71.609375 20.585938 71.425781 20.585938 L 69.4375 20.585938 C 69.246094 20.585938 69.09375 20.425781 69.09375 20.242188 L 69.09375 18.222656 C 69.09375 18.03125 68.9375 17.878906 68.75 17.878906 L 32.242188 17.878906 C 32.046875 17.878906 31.898438 17.722656 31.898438 17.535156 L 31.898438 15.53125 C 31.898438 15.339844 31.738281 15.1875 31.554688 15.1875 L 29.582031 15.1875 C 29.386719 15.1875 29.238281 15.03125 29.238281 14.84375 L 29.238281 12.839844 C 29.238281 12.648438 29.085938 12.496094 28.894531 12.496094 L 14.183594 12.496094 C 13.988281 12.496094 13.839844 12.648438 13.839844 12.839844 L 13.839844 25.054688 C 13.839844 25.246094 13.988281 25.398438 14.183594 25.398438 L 61.339844 25.398438 C 61.53125 25.398438 61.683594 25.558594 61.683594 25.742188 L 61.683594 27.746094 C 61.683594 27.9375 61.835938 28.089844 62.027344 28.089844 L 64 28.089844 C 64.1875 28.089844 64.34375 28.25 64.34375 28.433594 L 64.34375 30.4375 C 64.34375 30.632812 64.496094 30.78125 64.6875 30.78125 L 66.65625 30.78125 C 66.847656 30.78125 67 30.941406 67 31.125 L 67 38.515625 C 67 38.707031 67.15625 38.859375 67.34375 38.859375 L 69.316406 38.859375 C 69.507812 38.859375 69.660156 39.011719 69.660156 39.203125 L 69.660156 54.660156 C 69.660156 54.851562 69.808594 55.003906 70.003906 55.003906 L 71.425781 55.003906 C 71.609375 55.003906 71.769531 54.851562 71.769531 54.660156 Z M 71.769531 20.929688 " fill-opacity="1" fill-rule="nonzero"/></g><g clip-path="url(#72ca164c0f)"><path fill="#282a25" d="M 53.777344 57.9375 C 54.738281 58.074219 55.710938 58.179688 56.6875 58.304688 C 56.535156 44.628906 56.617188 30.945312 56.640625 17.261719 L 56.019531 17.613281 C 55.039062 17.511719 54.070312 17.414062 53.113281 17.214844 C 53.34375 16.15625 53.226562 15.089844 52.925781 14.058594 C 52.121094 14.003906 51.320312 13.96875 50.523438 13.925781 C 50.644531 13.167969 50.789062 12.417969 50.9375 11.667969 C 50.730469 11.550781 50.324219 11.320312 50.121094 11.210938 C 49.59375 11.324219 49.066406 11.441406 48.542969 11.5625 C 48.496094 10.703125 48.46875 9.851562 48.472656 8.996094 C 47.855469 8.945312 47.253906 8.832031 46.671875 8.660156 C 46.25 8.769531 45.835938 8.882812 45.425781 9 C 45.367188 8.011719 45.347656 7.019531 45.355469 6.035156 C 35.007812 5.96875 24.664062 6.050781 14.320312 5.992188 C 14.363281 7.128906 14.484375 8.277344 14.769531 9.390625 C 13.746094 9.558594 12.714844 9.574219 11.6875 9.5 C 11.847656 25.726562 11.738281 41.960938 11.761719 58.195312 C 12.816406 57.988281 13.910156 57.824219 14.980469 58.054688 C 15.3125 59.105469 15.050781 60.226562 15.058594 61.320312 C 28 61.453125 40.949219 61.25 53.894531 61.429688 C 53.800781 60.265625 53.800781 59.105469 53.765625 57.949219 Z M 53.777344 57.9375 " fill-opacity="1" fill-rule="nonzero"/></g><g clip-path="url(#370fed14fa)"><path fill="#e85528" d="M 15.34375 9.90625 C 24.265625 9.925781 33.183594 9.976562 42.105469 9.871094 C 42.023438 14.269531 42.046875 18.664062 42.09375 23.066406 C 45.753906 23.097656 49.414062 23.042969 53.078125 23.0625 C 53.113281 25.828125 53.007812 28.601562 53.171875 31.367188 L 53.171875 31.421875 C 53 39.476562 53.046875 47.535156 53.152344 55.582031 C 53.105469 56.199219 53.070312 56.816406 53.050781 57.445312 C 40.527344 57.292969 28.007812 57.445312 15.484375 57.292969 C 15.246094 41.503906 15.585938 25.699219 15.34375 9.90625 M 21.539062 19.808594 C 21.59375 21.050781 21.636719 22.300781 21.683594 23.554688 C 26.527344 23.59375 31.367188 23.429688 36.210938 23.570312 C 36.171875 22.261719 36.070312 20.960938 35.90625 19.671875 C 31.117188 19.84375 26.320312 19.5625 21.539062 19.808594 M 21.648438 29.449219 C 21.609375 30.667969 21.601562 31.886719 21.617188 33.109375 C 29.75 33.0625 37.882812 33.101562 46.015625 33.085938 C 46.058594 31.867188 46.105469 30.648438 46.167969 29.4375 C 37.996094 29.390625 29.820312 29.457031 21.648438 29.449219 M 21.574219 38.292969 C 21.558594 39.546875 21.53125 40.804688 21.511719 42.0625 C 29.988281 42.238281 38.46875 42.113281 46.941406 42.140625 C 46.9375 40.859375 46.902344 39.585938 46.84375 38.3125 C 38.417969 38.355469 29.996094 38.410156 21.574219 38.292969 M 21.515625 47.257812 C 21.515625 48.460938 21.480469 49.664062 21.410156 50.871094 C 26.730469 50.835938 32.050781 50.949219 37.371094 50.785156 C 37.359375 49.609375 37.375 48.429688 37.394531 47.261719 C 32.101562 47.226562 26.808594 47.132812 21.515625 47.257812 Z M 21.515625 47.257812 " fill-opacity="1" fill-rule="nonzero"/></g><path fill="#e85528" d="M 45.511719 12.390625 C 46.234375 12.460938 46.957031 12.535156 47.6875 12.605469 C 47.636719 13.570312 47.578125 14.539062 47.527344 15.515625 C 48.382812 15.507812 49.246094 15.507812 50.109375 15.511719 C 50.074219 16.367188 50.046875 17.226562 50.023438 18.097656 C 51.058594 18.058594 52.09375 18.027344 53.136719 18.011719 C 53.257812 18.472656 53.390625 18.945312 53.523438 19.421875 C 50.859375 19.617188 48.191406 19.5625 45.527344 19.53125 C 45.503906 17.152344 45.625 14.773438 45.511719 12.390625 Z M 45.511719 12.390625 " fill-opacity="1" fill-rule="nonzero"/><g transform="matrix(1, 0, 0, 1, 13, 37)"><g clip-path="url(#1803220ee9)"><g clip-path="url(#ac032222dc)"><path fill="#000000" d="M 31.375 6.191406 C 31.40625 5.867188 31.453125 5.535156 31.460938 5.203125 C 31.476562 4.507812 31.507812 3.820312 31.585938 3.132812 C 31.636719 2.722656 31.621094 2.71875 31.175781 2.605469 C 31.066406 2.695312 31.125 2.820312 31.125 2.925781 C 31.121094 3.261719 31.121094 3.597656 31.125 3.933594 C 31.125 4.113281 31.09375 4.289062 31.027344 4.453125 C 30.972656 4.597656 30.875 4.683594 30.722656 4.691406 C 30.597656 4.699219 30.488281 4.601562 30.433594 4.449219 C 30.351562 4.21875 30.34375 3.984375 30.355469 3.746094 C 30.378906 3.332031 30.402344 2.917969 30.421875 2.503906 C 30.433594 2.242188 30.425781 2.226562 30.195312 2.179688 C 29.722656 2.078125 29.285156 1.859375 28.808594 1.761719 C 27.820312 1.5625 26.832031 1.367188 25.820312 1.457031 C 24.550781 1.574219 23.289062 1.753906 22.074219 2.1875 C 21.726562 2.308594 21.402344 2.480469 21.105469 2.707031 C 20.574219 3.113281 20.117188 3.59375 19.703125 4.117188 C 19.417969 4.484375 19.296875 4.925781 19.171875 5.355469 C 18.929688 6.191406 18.800781 7.050781 18.734375 7.917969 C 18.671875 8.714844 18.796875 9.496094 18.988281 10.265625 C 19.054688 10.535156 19.160156 10.785156 19.355469 11.015625 C 19.671875 10.917969 19.882812 10.632812 20.171875 10.488281 C 20.441406 10.351562 20.691406 10.164062 21.042969 10.171875 C 20.902344 10.515625 20.65625 10.742188 20.417969 10.964844 C 20.304688 11.074219 20.183594 11.175781 20.058594 11.265625 C 19.710938 11.5 19.867188 11.5625 20.078125 11.714844 C 20.175781 11.785156 20.25 11.769531 20.335938 11.703125 C 20.578125 11.507812 20.816406 11.300781 21.070312 11.125 C 21.289062 10.96875 21.527344 10.828125 21.804688 10.804688 C 21.839844 10.800781 21.886719 10.8125 21.90625 10.835938 C 21.921875 10.855469 21.925781 10.914062 21.910156 10.9375 C 21.832031 11.050781 21.746094 11.15625 21.65625 11.261719 C 21.609375 11.316406 21.628906 11.375 21.65625 11.421875 C 21.683594 11.472656 21.746094 11.5 21.804688 11.46875 C 21.941406 11.394531 22.070312 11.3125 22.207031 11.238281 C 22.429688 11.117188 22.664062 11.027344 22.921875 11.019531 C 22.96875 11.019531 23.03125 11.050781 23.0625 11.089844 C 23.105469 11.148438 23.046875 11.199219 23.007812 11.234375 C 22.703125 11.507812 22.394531 11.777344 22.089844 12.046875 C 21.988281 12.136719 21.859375 12.199219 21.804688 12.335938 C 22.183594 12.542969 22.183594 12.542969 22.4375 12.296875 C 22.859375 11.886719 23.347656 11.636719 23.941406 11.644531 C 24.015625 11.644531 24.097656 11.640625 24.15625 11.726562 C 24.023438 11.921875 23.824219 12.039062 23.640625 12.175781 C 23.472656 12.304688 23.304688 12.4375 23.136719 12.570312 C 23.097656 12.601562 23.097656 12.640625 23.128906 12.671875 C 23.140625 12.6875 23.152344 12.714844 23.164062 12.714844 C 23.492188 12.746094 23.816406 12.785156 24.144531 12.792969 C 24.25 12.792969 24.359375 12.71875 24.460938 12.664062 C 24.734375 12.519531 25.003906 12.367188 25.277344 12.21875 C 25.34375 12.179688 25.414062 12.136719 25.496094 12.203125 C 25.4375 12.453125 25.242188 12.625 25.109375 12.832031 C 25.089844 12.859375 25.078125 12.929688 25.089844 12.9375 C 25.132812 12.96875 25.191406 12.992188 25.242188 12.996094 C 25.367188 12.996094 25.453125 12.90625 25.550781 12.84375 C 25.832031 12.667969 26.121094 12.511719 26.445312 12.4375 C 26.503906 12.425781 26.5625 12.398438 26.605469 12.453125 C 26.664062 12.527344 26.628906 12.605469 26.582031 12.667969 C 26.472656 12.824219 26.347656 12.972656 26.210938 13.152344 C 26.484375 13.296875 26.738281 13.421875 26.984375 13.5625 C 28.027344 14.136719 28.136719 15.25 27.875 16.179688 C 27.851562 16.265625 27.777344 16.347656 27.703125 16.40625 C 27.542969 16.539062 27.292969 16.445312 27.246094 16.238281 C 27.226562 16.144531 27.222656 16.039062 27.242188 15.949219 C 27.292969 15.730469 27.277344 15.515625 27.273438 15.300781 C 27.261719 14.886719 27.050781 14.589844 26.714844 14.386719 C 26.265625 14.113281 25.792969 13.902344 25.25 13.894531 C 24.921875 13.890625 24.597656 13.820312 24.28125 13.734375 C 24.09375 13.679688 23.902344 13.648438 23.710938 13.628906 C 22.683594 13.535156 21.714844 13.195312 20.746094 12.855469 C 20.210938 12.667969 19.734375 12.375 19.300781 12 C 18.816406 11.570312 18.511719 11.039062 18.363281 10.402344 C 18.050781 9.070312 18.058594 7.746094 18.375 6.414062 C 18.542969 5.703125 18.785156 5.015625 18.992188 4.316406 C 19 4.300781 19.007812 4.28125 19.015625 4.265625 C 19.667969 3.0625 20.472656 2.027344 21.796875 1.546875 C 22.707031 1.21875 23.632812 0.9375 24.601562 0.855469 C 24.851562 0.832031 25.097656 0.78125 25.347656 0.746094 C 26.917969 0.5 28.421875 0.832031 29.90625 1.292969 C 30.039062 1.332031 30.164062 1.398438 30.296875 1.414062 C 30.808594 1.476562 31.230469 1.777344 31.6875 1.980469 C 32.03125 2.136719 32.25 2.460938 32.269531 2.875 C 32.28125 3.128906 32.289062 3.390625 32.273438 3.644531 C 32.242188 4.394531 32.207031 5.144531 32.15625 5.894531 C 32.140625 6.148438 32.097656 6.40625 32.03125 6.652344 C 31.960938 6.910156 31.816406 6.96875 31.539062 6.925781 C 30.953125 6.839844 30.359375 6.78125 29.773438 6.671875 C 28.472656 6.429688 27.160156 6.441406 25.84375 6.445312 C 25.535156 6.445312 25.226562 6.464844 24.925781 6.550781 C 24.417969 6.695312 24.03125 7.238281 24.085938 7.753906 C 24.109375 7.980469 24.210938 8.171875 24.433594 8.261719 C 25.042969 8.511719 25.644531 8.789062 26.316406 8.796875 C 26.707031 8.800781 27.082031 8.894531 27.453125 8.996094 C 27.828125 9.101562 28.199219 9.210938 28.578125 9.269531 C 29.667969 9.445312 30.644531 9.886719 31.554688 10.511719 C 31.886719 10.738281 32.136719 11.023438 32.3125 11.390625 C 32.683594 12.164062 32.886719 12.976562 32.882812 13.84375 C 32.878906 14.160156 32.898438 14.476562 32.894531 14.792969 C 32.890625 15.089844 32.871094 15.386719 32.78125 15.671875 C 32.753906 15.765625 32.730469 15.863281 32.683594 15.945312 C 32.625 16.050781 32.539062 16.144531 32.410156 16.136719 C 32.269531 16.128906 32.230469 15.988281 32.207031 15.882812 C 32.171875 15.710938 32.171875 15.53125 32.171875 15.355469 C 32.167969 14.800781 32.199219 14.246094 32.164062 13.695312 C 32.121094 13.003906 32.011719 12.324219 31.636719 11.71875 C 31.507812 11.515625 31.371094 11.328125 31.171875 11.195312 C 30.347656 10.628906 29.464844 10.199219 28.480469 10.011719 C 28.234375 9.960938 27.984375 9.929688 27.746094 9.84375 C 27.125 9.625 26.476562 9.511719 25.828125 9.425781 C 25.222656 9.339844 24.679688 9.078125 24.144531 8.808594 C 23.730469 8.597656 23.515625 8.210938 23.566406 7.734375 C 23.679688 6.691406 24.183594 6.027344 25.1875 5.859375 C 25.722656 5.769531 26.265625 5.71875 26.808594 5.738281 C 27.617188 5.765625 28.4375 5.769531 29.238281 5.867188 C 29.90625 5.949219 30.585938 6.007812 31.234375 6.207031 C 31.269531 6.214844 31.308594 6.199219 31.375 6.191406 Z M 21.257812 12.210938 C 21.328125 12.054688 21.402344 11.898438 21.464844 11.738281 C 21.476562 11.714844 21.449219 11.664062 21.425781 11.644531 C 21.402344 11.621094 21.351562 11.605469 21.328125 11.617188 C 21.121094 11.71875 20.953125 11.875 20.808594 12.066406 C 20.957031 12.148438 21.09375 12.203125 21.257812 12.210938 Z M 21.257812 12.210938 " fill-opacity="1" fill-rule="nonzero"/></g><g clip-path="url(#acc4a79ea5)"><path fill="#000000" d="M 22.851562 19.527344 C 22.722656 19.792969 22.492188 19.96875 22.285156 20.164062 C 22.074219 20.359375 21.855469 20.546875 21.597656 20.773438 C 21.75 20.804688 21.839844 20.8125 21.929688 20.839844 C 22.214844 20.929688 22.414062 20.898438 22.582031 20.582031 C 22.753906 20.261719 23.097656 20.113281 23.453125 20.050781 C 23.527344 20.039062 23.617188 19.984375 23.671875 20.058594 C 23.75 20.167969 23.632812 20.230469 23.578125 20.296875 C 23.453125 20.449219 23.3125 20.585938 23.183594 20.734375 C 23.046875 20.894531 23.066406 20.992188 23.253906 21.015625 C 23.84375 21.097656 24.414062 21.292969 25.015625 21.339844 C 25.566406 21.382812 26.09375 21.34375 26.625 21.207031 C 27.09375 21.089844 27.566406 20.996094 28.039062 20.890625 C 28.113281 20.875 28.191406 20.847656 28.265625 20.851562 C 29.023438 20.886719 29.636719 20.53125 30.214844 20.089844 C 30.402344 19.949219 30.59375 19.8125 30.785156 19.679688 C 30.847656 19.636719 30.917969 19.601562 30.992188 19.574219 C 31.113281 19.53125 31.21875 19.578125 31.292969 19.683594 C 31.355469 19.773438 31.34375 19.867188 31.285156 19.960938 C 31.265625 19.992188 31.246094 20.03125 31.21875 20.054688 C 30.691406 20.480469 30.21875 21.011719 29.527344 21.164062 C 28.582031 21.371094 27.6875 21.742188 26.761719 22.003906 C 26.460938 22.085938 26.15625 22.136719 25.847656 22.136719 C 25.152344 22.140625 24.457031 22.125 23.78125 21.921875 C 23.222656 21.753906 22.640625 21.710938 22.066406 21.628906 C 21.472656 21.546875 20.882812 21.453125 20.289062 21.355469 C 20.140625 21.332031 19.992188 21.28125 19.84375 21.234375 C 19.335938 21.070312 19.046875 20.777344 19.011719 20.175781 C 18.972656 19.476562 19.039062 18.796875 19.109375 18.109375 C 19.164062 17.601562 19.257812 17.09375 19.207031 16.578125 C 19.191406 16.417969 19.28125 16.308594 19.4375 16.308594 C 19.667969 16.308594 19.902344 16.320312 20.132812 16.347656 C 20.667969 16.402344 21.207031 16.472656 21.742188 16.535156 C 22.691406 16.640625 23.636719 16.542969 24.582031 16.503906 C 24.835938 16.496094 25.085938 16.492188 25.335938 16.5 C 25.761719 16.519531 26.183594 16.566406 26.601562 16.421875 C 26.742188 16.375 26.910156 16.402344 27.0625 16.410156 C 27.167969 16.417969 27.226562 16.507812 27.265625 16.601562 C 27.304688 16.703125 27.273438 16.800781 27.199219 16.867188 C 27.128906 16.933594 27.046875 16.988281 26.957031 17.023438 C 26.628906 17.148438 26.300781 17.257812 25.945312 17.242188 C 25.054688 17.207031 24.167969 17.25 23.277344 17.316406 C 22.445312 17.378906 21.621094 17.238281 20.804688 17.066406 C 20.46875 16.996094 20.128906 16.925781 19.757812 16.847656 C 19.742188 17.347656 19.730469 17.800781 19.71875 18.25 C 19.71875 18.300781 19.738281 18.316406 19.777344 18.335938 C 19.824219 18.351562 19.847656 18.351562 19.886719 18.320312 C 20.113281 18.136719 20.332031 17.941406 20.605469 17.828125 C 20.710938 17.785156 20.824219 17.75 20.933594 17.726562 C 21.003906 17.714844 21.097656 17.722656 21.121094 17.8125 C 21.136719 17.859375 21.113281 17.933594 21.082031 17.972656 C 20.992188 18.074219 20.894531 18.167969 20.792969 18.257812 C 20.542969 18.480469 20.316406 18.734375 20.035156 18.90625 C 19.683594 19.117188 19.574219 19.394531 19.640625 19.777344 C 19.648438 19.816406 19.636719 19.859375 19.648438 19.894531 C 19.667969 19.949219 19.6875 20.007812 19.726562 20.039062 C 19.777344 20.078125 19.832031 20.039062 19.867188 19.992188 C 20.078125 19.730469 20.335938 19.519531 20.59375 19.3125 C 20.898438 19.070312 21.230469 18.863281 21.585938 18.710938 C 21.695312 18.660156 21.808594 18.636719 21.921875 18.679688 C 21.953125 18.742188 21.921875 18.789062 21.886719 18.832031 C 21.445312 19.363281 20.933594 19.816406 20.414062 20.261719 C 20.246094 20.410156 20.070312 20.523438 19.847656 20.34375 C 19.792969 20.296875 19.746094 20.359375 19.746094 20.417969 C 19.746094 20.476562 19.773438 20.535156 19.84375 20.546875 C 20.089844 20.589844 20.335938 20.632812 20.585938 20.675781 C 20.789062 20.707031 20.90625 20.644531 21.054688 20.453125 C 21.445312 19.949219 21.976562 19.625 22.601562 19.484375 C 22.671875 19.464844 22.75 19.449219 22.851562 19.527344 Z M 22.851562 19.527344 " fill-opacity="1" fill-rule="nonzero"/></g><path fill="#000000" d="M 31.605469 13.835938 C 31.589844 13.914062 31.578125 13.992188 31.550781 14.0625 C 31.480469 14.230469 31.226562 14.269531 31.117188 14.125 C 31.0625 14.050781 31.023438 13.957031 30.992188 13.867188 C 30.886719 13.546875 30.742188 13.25 30.59375 12.953125 C 30.414062 12.597656 30.222656 12.261719 29.851562 12.078125 C 29.820312 12.0625 29.785156 12.03125 29.765625 12 C 29.730469 11.929688 29.703125 11.859375 29.75 11.777344 C 29.792969 11.699219 29.859375 11.667969 29.9375 11.671875 C 29.996094 11.675781 30.058594 11.683594 30.109375 11.703125 C 30.328125 11.789062 30.53125 11.902344 30.683594 12.085938 C 31.035156 12.507812 31.316406 12.972656 31.511719 13.492188 C 31.554688 13.601562 31.574219 13.71875 31.605469 13.835938 Z M 31.605469 13.835938 " fill-opacity="1" fill-rule="nonzero"/><g clip-path="url(#0730cc2489)"><path fill="#000000" d="M 31.804688 17.8125 C 31.8125 17.734375 31.820312 17.597656 31.855469 17.464844 C 31.898438 17.289062 32.089844 17.179688 32.257812 17.207031 C 32.414062 17.234375 32.523438 17.355469 32.542969 17.535156 C 32.5625 17.753906 32.554688 17.964844 32.40625 18.148438 C 32.316406 18.261719 32.207031 18.324219 32.058594 18.316406 C 31.925781 18.308594 31.84375 18.242188 31.824219 18.109375 C 31.8125 18.027344 31.8125 17.949219 31.804688 17.8125 Z M 31.804688 17.8125 " fill-opacity="1" fill-rule="nonzero"/></g><path fill="#000000" d="M 30.910156 5.144531 C 30.910156 5.320312 30.8125 5.460938 30.667969 5.480469 C 30.539062 5.496094 30.414062 5.378906 30.410156 5.234375 C 30.402344 5.035156 30.539062 4.886719 30.710938 4.902344 C 30.824219 4.914062 30.90625 5.015625 30.910156 5.144531 Z M 30.910156 5.144531 " fill-opacity="1" fill-rule="nonzero"/><path fill="#000000" d="M 24.394531 20.65625 C 24.378906 20.785156 24.25 20.898438 24.121094 20.882812 C 24.007812 20.875 23.914062 20.757812 23.929688 20.640625 C 23.941406 20.507812 24.078125 20.417969 24.226562 20.453125 C 24.328125 20.472656 24.398438 20.53125 24.394531 20.65625 Z M 24.394531 20.65625 " fill-opacity="1" fill-rule="nonzero"/><g clip-path="url(#a2f403531b)"><path fill="#000000" d="M 46.574219 6.191406 C 46.601562 5.867188 46.652344 5.535156 46.660156 5.203125 C 46.675781 4.507812 46.703125 3.820312 46.785156 3.132812 C 46.835938 2.722656 46.820312 2.71875 46.375 2.605469 C 46.265625 2.695312 46.324219 2.820312 46.324219 2.925781 C 46.320312 3.261719 46.320312 3.597656 46.324219 3.933594 C 46.324219 4.113281 46.292969 4.289062 46.226562 4.453125 C 46.171875 4.597656 46.074219 4.683594 45.921875 4.691406 C 45.796875 4.699219 45.6875 4.601562 45.632812 4.449219 C 45.550781 4.21875 45.542969 3.984375 45.554688 3.746094 C 45.578125 3.332031 45.601562 2.917969 45.621094 2.503906 C 45.628906 2.242188 45.625 2.226562 45.394531 2.179688 C 44.921875 2.078125 44.484375 1.859375 44.007812 1.761719 C 43.019531 1.5625 42.03125 1.367188 41.019531 1.457031 C 39.75 1.574219 38.488281 1.753906 37.273438 2.1875 C 36.925781 2.308594 36.601562 2.480469 36.304688 2.707031 C 35.773438 3.113281 35.316406 3.59375 34.902344 4.117188 C 34.613281 4.484375 34.496094 4.925781 34.371094 5.355469 C 34.128906 6.191406 34 7.050781 33.933594 7.917969 C 33.871094 8.714844 33.996094 9.496094 34.1875 10.265625 C 34.253906 10.535156 34.359375 10.785156 34.554688 11.015625 C 34.871094 10.917969 35.082031 10.632812 35.371094 10.488281 C 35.640625 10.351562 35.890625 10.164062 36.242188 10.171875 C 36.101562 10.515625 35.855469 10.742188 35.617188 10.964844 C 35.503906 11.074219 35.382812 11.175781 35.257812 11.265625 C 34.910156 11.5 35.066406 11.5625 35.277344 11.714844 C 35.375 11.785156 35.449219 11.769531 35.535156 11.703125 C 35.777344 11.507812 36.011719 11.300781 36.265625 11.125 C 36.488281 10.96875 36.726562 10.828125 37.003906 10.804688 C 37.039062 10.800781 37.085938 10.8125 37.105469 10.835938 C 37.121094 10.855469 37.125 10.914062 37.109375 10.9375 C 37.03125 11.050781 36.945312 11.15625 36.855469 11.261719 C 36.808594 11.316406 36.828125 11.375 36.855469 11.421875 C 36.882812 11.472656 36.945312 11.5 37.003906 11.46875 C 37.136719 11.394531 37.269531 11.3125 37.40625 11.238281 C 37.628906 11.117188 37.863281 11.027344 38.121094 11.019531 C 38.167969 11.019531 38.230469 11.050781 38.261719 11.089844 C 38.304688 11.148438 38.246094 11.199219 38.207031 11.234375 C 37.902344 11.507812 37.59375 11.777344 37.289062 12.046875 C 37.1875 12.136719 37.058594 12.199219 37 12.335938 C 37.382812 12.542969 37.382812 12.542969 37.636719 12.296875 C 38.058594 11.886719 38.546875 11.636719 39.140625 11.644531 C 39.214844 11.644531 39.296875 11.640625 39.355469 11.726562 C 39.222656 11.921875 39.023438 12.039062 38.839844 12.175781 C 38.671875 12.304688 38.5 12.4375 38.335938 12.570312 C 38.296875 12.601562 38.296875 12.640625 38.328125 12.671875 C 38.339844 12.6875 38.347656 12.714844 38.363281 12.714844 C 38.6875 12.746094 39.015625 12.785156 39.34375 12.792969 C 39.449219 12.792969 39.558594 12.71875 39.660156 12.664062 C 39.933594 12.519531 40.203125 12.367188 40.476562 12.21875 C 40.542969 12.179688 40.613281 12.136719 40.695312 12.203125 C 40.632812 12.453125 40.441406 12.625 40.308594 12.832031 C 40.289062 12.859375 40.273438 12.929688 40.289062 12.9375 C 40.332031 12.96875 40.390625 12.992188 40.441406 12.996094 C 40.566406 12.996094 40.652344 12.90625 40.75 12.84375 C 41.03125 12.667969 41.320312 12.511719 41.644531 12.4375 C 41.703125 12.425781 41.761719 12.398438 41.804688 12.453125 C 41.863281 12.527344 41.824219 12.605469 41.78125 12.667969 C 41.671875 12.824219 41.546875 12.972656 41.410156 13.152344 C 41.683594 13.296875 41.9375 13.421875 42.183594 13.5625 C 43.226562 14.136719 43.335938 15.25 43.074219 16.179688 C 43.050781 16.265625 42.976562 16.347656 42.902344 16.40625 C 42.742188 16.539062 42.492188 16.445312 42.445312 16.238281 C 42.421875 16.144531 42.421875 16.039062 42.441406 15.949219 C 42.492188 15.730469 42.476562 15.515625 42.472656 15.300781 C 42.457031 14.886719 42.25 14.589844 41.914062 14.386719 C 41.464844 14.113281 40.992188 13.902344 40.449219 13.894531 C 40.121094 13.890625 39.796875 13.820312 39.480469 13.734375 C 39.292969 13.679688 39.101562 13.648438 38.910156 13.628906 C 37.882812 13.535156 36.914062 13.195312 35.945312 12.855469 C 35.410156 12.667969 34.933594 12.375 34.5 12 C 34.015625 11.570312 33.710938 11.039062 33.5625 10.402344 C 33.25 9.070312 33.257812 7.746094 33.574219 6.414062 C 33.742188 5.703125 33.984375 5.015625 34.191406 4.316406 C 34.199219 4.300781 34.207031 4.28125 34.214844 4.265625 C 34.867188 3.0625 35.671875 2.027344 36.996094 1.546875 C 37.90625 1.21875 38.832031 0.9375 39.800781 0.855469 C 40.050781 0.832031 40.296875 0.78125 40.546875 0.746094 C 42.117188 0.5 43.617188 0.832031 45.105469 1.292969 C 45.238281 1.332031 45.363281 1.398438 45.492188 1.414062 C 46.007812 1.476562 46.429688 1.777344 46.886719 1.980469 C 47.230469 2.136719 47.449219 2.460938 47.46875 2.875 C 47.480469 3.128906 47.488281 3.390625 47.472656 3.644531 C 47.441406 4.394531 47.40625 5.144531 47.355469 5.894531 C 47.339844 6.148438 47.296875 6.40625 47.230469 6.652344 C 47.160156 6.910156 47.015625 6.96875 46.738281 6.925781 C 46.152344 6.839844 45.558594 6.78125 44.972656 6.671875 C 43.671875 6.429688 42.359375 6.441406 41.042969 6.445312 C 40.734375 6.445312 40.425781 6.464844 40.125 6.550781 C 39.617188 6.695312 39.230469 7.238281 39.285156 7.753906 C 39.308594 7.980469 39.410156 8.171875 39.632812 8.261719 C 40.242188 8.511719 40.84375 8.789062 41.515625 8.796875 C 41.90625 8.800781 42.28125 8.894531 42.652344 8.996094 C 43.027344 9.101562 43.398438 9.210938 43.777344 9.269531 C 44.867188 9.445312 45.84375 9.886719 46.753906 10.511719 C 47.085938 10.738281 47.335938 11.023438 47.511719 11.390625 C 47.882812 12.164062 48.085938 12.976562 48.082031 13.84375 C 48.078125 14.160156 48.097656 14.476562 48.09375 14.792969 C 48.089844 15.089844 48.070312 15.386719 47.980469 15.671875 C 47.953125 15.765625 47.929688 15.863281 47.882812 15.945312 C 47.824219 16.050781 47.738281 16.144531 47.609375 16.136719 C 47.46875 16.128906 47.429688 15.988281 47.40625 15.882812 C 47.371094 15.710938 47.371094 15.53125 47.371094 15.355469 C 47.367188 14.800781 47.398438 14.246094 47.363281 13.695312 C 47.320312 13.003906 47.210938 12.324219 46.835938 11.71875 C 46.707031 11.515625 46.570312 11.328125 46.371094 11.195312 C 45.546875 10.628906 44.664062 10.199219 43.679688 10.011719 C 43.433594 9.960938 43.183594 9.929688 42.945312 9.84375 C 42.320312 9.625 41.675781 9.511719 41.023438 9.425781 C 40.421875 9.339844 39.878906 9.078125 39.34375 8.808594 C 38.929688 8.597656 38.714844 8.210938 38.765625 7.734375 C 38.878906 6.691406 39.382812 6.027344 40.386719 5.859375 C 40.921875 5.769531 41.464844 5.71875 42.007812 5.738281 C 42.816406 5.765625 43.632812 5.769531 44.4375 5.867188 C 45.105469 5.949219 45.78125 6.007812 46.433594 6.207031 C 46.464844 6.214844 46.507812 6.199219 46.574219 6.191406 Z M 36.457031 12.210938 C 36.527344 12.054688 36.601562 11.898438 36.664062 11.738281 C 36.675781 11.714844 36.648438 11.664062 36.625 11.644531 C 36.601562 11.621094 36.550781 11.605469 36.527344 11.617188 C 36.320312 11.71875 36.152344 11.875 36.007812 12.066406 C 36.15625 12.148438 36.292969 12.203125 36.457031 12.210938 Z M 36.457031 12.210938 " fill-opacity="1" fill-rule="nonzero"/></g><g clip-path="url(#109abf999d)"><path fill="#000000" d="M 38.050781 19.527344 C 37.921875 19.792969 37.691406 19.96875 37.484375 20.164062 C 37.273438 20.359375 37.054688 20.546875 36.796875 20.773438 C 36.949219 20.804688 37.039062 20.8125 37.128906 20.839844 C 37.414062 20.929688 37.613281 20.898438 37.78125 20.582031 C 37.953125 20.261719 38.296875 20.113281 38.652344 20.050781 C 38.726562 20.039062 38.816406 19.984375 38.871094 20.058594 C 38.949219 20.167969 38.832031 20.230469 38.773438 20.296875 C 38.652344 20.449219 38.511719 20.585938 38.382812 20.734375 C 38.246094 20.894531 38.265625 20.992188 38.449219 21.015625 C 39.042969 21.097656 39.613281 21.292969 40.214844 21.339844 C 40.765625 21.382812 41.292969 21.34375 41.824219 21.207031 C 42.292969 21.089844 42.765625 20.996094 43.238281 20.890625 C 43.3125 20.875 43.390625 20.847656 43.464844 20.851562 C 44.222656 20.886719 44.835938 20.53125 45.414062 20.089844 C 45.601562 19.949219 45.792969 19.8125 45.984375 19.679688 C 46.046875 19.636719 46.117188 19.601562 46.191406 19.574219 C 46.3125 19.53125 46.414062 19.578125 46.492188 19.683594 C 46.554688 19.773438 46.542969 19.867188 46.484375 19.960938 C 46.464844 19.992188 46.445312 20.03125 46.417969 20.054688 C 45.890625 20.480469 45.417969 21.011719 44.726562 21.164062 C 43.78125 21.371094 42.886719 21.742188 41.960938 22.003906 C 41.65625 22.085938 41.355469 22.136719 41.046875 22.136719 C 40.351562 22.140625 39.65625 22.125 38.976562 21.921875 C 38.421875 21.753906 37.839844 21.710938 37.265625 21.628906 C 36.671875 21.546875 36.082031 21.453125 35.488281 21.355469 C 35.339844 21.332031 35.191406 21.28125 35.042969 21.234375 C 34.535156 21.070312 34.246094 20.777344 34.210938 20.175781 C 34.171875 19.476562 34.238281 18.796875 34.308594 18.109375 C 34.363281 17.601562 34.457031 17.09375 34.40625 16.578125 C 34.390625 16.417969 34.480469 16.308594 34.636719 16.308594 C 34.867188 16.308594 35.101562 16.320312 35.328125 16.347656 C 35.867188 16.402344 36.402344 16.472656 36.941406 16.535156 C 37.890625 16.640625 38.835938 16.542969 39.78125 16.503906 C 40.035156 16.496094 40.285156 16.492188 40.535156 16.5 C 40.960938 16.519531 41.382812 16.566406 41.800781 16.421875 C 41.941406 16.375 42.109375 16.402344 42.261719 16.410156 C 42.367188 16.417969 42.425781 16.507812 42.464844 16.601562 C 42.503906 16.703125 42.472656 16.800781 42.398438 16.867188 C 42.328125 16.933594 42.246094 16.988281 42.15625 17.023438 C 41.828125 17.148438 41.5 17.257812 41.144531 17.242188 C 40.253906 17.207031 39.367188 17.25 38.476562 17.316406 C 37.644531 17.378906 36.820312 17.238281 36.003906 17.066406 C 35.667969 16.996094 35.328125 16.925781 34.953125 16.847656 C 34.941406 17.347656 34.929688 17.800781 34.917969 18.25 C 34.917969 18.300781 34.9375 18.316406 34.976562 18.335938 C 35.023438 18.351562 35.046875 18.351562 35.085938 18.320312 C 35.3125 18.136719 35.53125 17.941406 35.804688 17.828125 C 35.910156 17.785156 36.023438 17.75 36.132812 17.726562 C 36.203125 17.714844 36.296875 17.722656 36.320312 17.8125 C 36.335938 17.859375 36.3125 17.933594 36.28125 17.972656 C 36.191406 18.074219 36.09375 18.167969 35.992188 18.257812 C 35.742188 18.480469 35.515625 18.734375 35.234375 18.90625 C 34.882812 19.117188 34.773438 19.394531 34.839844 19.777344 C 34.847656 19.816406 34.835938 19.859375 34.847656 19.894531 C 34.867188 19.949219 34.886719 20.007812 34.925781 20.039062 C 34.976562 20.078125 35.03125 20.039062 35.066406 19.992188 C 35.277344 19.730469 35.535156 19.519531 35.792969 19.3125 C 36.097656 19.070312 36.429688 18.863281 36.785156 18.710938 C 36.894531 18.660156 37.007812 18.636719 37.121094 18.679688 C 37.152344 18.742188 37.121094 18.789062 37.085938 18.832031 C 36.644531 19.363281 36.132812 19.816406 35.613281 20.261719 C 35.445312 20.410156 35.269531 20.523438 35.046875 20.34375 C 34.988281 20.296875 34.945312 20.359375 34.945312 20.417969 C 34.945312 20.476562 34.972656 20.535156 35.039062 20.546875 C 35.289062 20.589844 35.535156 20.632812 35.785156 20.675781 C 35.988281 20.707031 36.105469 20.644531 36.25 20.453125 C 36.640625 19.949219 37.175781 19.625 37.800781 19.484375 C 37.871094 19.464844 37.949219 19.449219 38.050781 19.527344 Z M 38.050781 19.527344 " fill-opacity="1" fill-rule="nonzero"/></g><path fill="#000000" d="M 46.804688 13.835938 C 46.789062 13.914062 46.777344 13.992188 46.75 14.0625 C 46.679688 14.230469 46.425781 14.269531 46.316406 14.125 C 46.261719 14.050781 46.222656 13.957031 46.191406 13.867188 C 46.085938 13.546875 45.941406 13.25 45.792969 12.953125 C 45.613281 12.597656 45.421875 12.261719 45.050781 12.078125 C 45.019531 12.0625 44.984375 12.03125 44.964844 12 C 44.929688 11.929688 44.902344 11.859375 44.945312 11.777344 C 44.992188 11.699219 45.058594 11.667969 45.136719 11.671875 C 45.195312 11.675781 45.253906 11.683594 45.308594 11.703125 C 45.527344 11.789062 45.730469 11.902344 45.882812 12.085938 C 46.234375 12.507812 46.515625 12.972656 46.710938 13.492188 C 46.753906 13.601562 46.773438 13.71875 46.804688 13.835938 Z M 46.804688 13.835938 " fill-opacity="1" fill-rule="nonzero"/><path fill="#000000" d="M 47.003906 17.8125 C 47.011719 17.734375 47.019531 17.597656 47.054688 17.464844 C 47.097656 17.289062 47.289062 17.179688 47.457031 17.207031 C 47.613281 17.234375 47.722656 17.355469 47.742188 17.535156 C 47.761719 17.753906 47.753906 17.964844 47.605469 18.148438 C 47.515625 18.261719 47.40625 18.324219 47.257812 18.316406 C 47.125 18.308594 47.042969 18.242188 47.023438 18.109375 C 47.011719 18.027344 47.011719 17.949219 47.003906 17.8125 Z M 47.003906 17.8125 " fill-opacity="1" fill-rule="nonzero"/><path fill="#000000" d="M 46.105469 5.144531 C 46.109375 5.320312 46.011719 5.460938 45.867188 5.480469 C 45.738281 5.496094 45.613281 5.378906 45.609375 5.234375 C 45.601562 5.035156 45.738281 4.886719 45.910156 4.902344 C 46.023438 4.914062 46.105469 5.015625 46.105469 5.144531 Z M 46.105469 5.144531 " fill-opacity="1" fill-rule="nonzero"/><path fill="#000000" d="M 39.59375 20.65625 C 39.578125 20.785156 39.449219 20.898438 39.320312 20.882812 C 39.207031 20.875 39.113281 20.757812 39.128906 20.640625 C 39.140625 20.507812 39.277344 20.417969 39.425781 20.453125 C 39.527344 20.472656 39.597656 20.53125 39.59375 20.65625 Z M 39.59375 20.65625 " fill-opacity="1" fill-rule="nonzero"/><g clip-path="url(#ac8128ccd4)"><path fill="#000000" d="M 3.097656 18.570312 C 3.085938 18.609375 3.054688 18.652344 3.066406 18.675781 C 3.667969 19.890625 4.644531 20.582031 6 20.757812 C 6.5625 20.828125 7.117188 20.96875 7.675781 21.039062 C 8.929688 21.203125 10.1875 21.277344 11.441406 21.097656 C 11.894531 21.035156 12.332031 20.835938 12.769531 20.683594 C 13.378906 20.472656 13.929688 20.121094 14.546875 19.921875 C 14.597656 19.902344 14.636719 19.847656 14.683594 19.8125 C 14.792969 19.726562 14.890625 19.746094 14.925781 19.863281 C 15.019531 20.164062 14.972656 20.410156 14.726562 20.5625 C 14.335938 20.808594 13.984375 21.101562 13.546875 21.292969 C 13.101562 21.492188 12.660156 21.679688 12.207031 21.847656 C 11.820312 21.988281 11.429688 22.066406 11.019531 22.082031 C 9.859375 22.117188 8.703125 22.113281 7.550781 21.945312 C 7.011719 21.867188 6.480469 21.710938 5.941406 21.640625 C 5.429688 21.574219 4.964844 21.398438 4.5 21.1875 C 3.691406 20.824219 3.09375 20.242188 2.625 19.511719 C 2.300781 19.003906 2.015625 18.46875 1.769531 17.914062 C 1.667969 17.695312 1.589844 17.464844 1.480469 17.246094 C 0.894531 16.082031 0.695312 14.839844 0.683594 13.554688 C 0.679688 13.050781 0.667969 12.546875 0.605469 12.042969 C 0.574219 11.785156 0.578125 11.519531 0.59375 11.257812 C 0.679688 9.96875 0.832031 8.6875 1.023438 7.410156 C 1.078125 7.054688 1.167969 6.703125 1.246094 6.347656 C 1.324219 6.015625 1.464844 5.703125 1.421875 5.339844 C 1.402344 5.191406 1.46875 5.019531 1.539062 4.878906 C 1.789062 4.351562 2.054688 3.828125 2.316406 3.304688 C 2.542969 2.855469 2.902344 2.539062 3.367188 2.339844 C 3.683594 2.203125 3.996094 2.058594 4.28125 1.867188 C 4.347656 1.824219 4.425781 1.78125 4.5 1.761719 C 5.417969 1.523438 6.3125 1.199219 7.257812 1.046875 C 7.953125 0.9375 8.65625 0.851562 9.347656 0.683594 C 9.910156 0.550781 10.503906 0.515625 11.101562 0.609375 C 11.824219 0.726562 12.527344 0.886719 13.214844 1.144531 C 13.707031 1.332031 14.199219 1.519531 14.675781 1.738281 C 14.820312 1.804688 14.988281 1.867188 15.09375 1.976562 C 15.675781 2.585938 16.355469 3.105469 16.769531 3.878906 C 17.125 4.542969 17.378906 5.242188 17.585938 5.953125 C 17.910156 7.078125 18.039062 8.242188 18.097656 9.414062 C 18.152344 10.484375 18.132812 11.550781 18.082031 12.621094 C 18.042969 13.464844 17.925781 14.308594 17.707031 15.128906 C 17.605469 15.519531 17.496094 15.90625 17.390625 16.296875 C 17.335938 16.496094 17.242188 16.671875 17.082031 16.804688 C 16.941406 16.925781 16.734375 16.859375 16.707031 16.679688 C 16.695312 16.601562 16.691406 16.519531 16.699219 16.441406 C 16.753906 15.917969 16.8125 15.398438 16.941406 14.886719 C 17.148438 14.0625 17.265625 13.226562 17.253906 12.375 C 17.246094 11.972656 17.296875 11.566406 17.296875 11.164062 C 17.289062 10.335938 17.324219 9.503906 17.230469 8.683594 C 17.109375 7.609375 16.964844 6.535156 16.550781 5.503906 C 16.320312 4.9375 16.046875 4.410156 15.726562 3.894531 C 15.589844 3.667969 15.421875 3.46875 15.199219 3.316406 C 15.097656 3.25 14.988281 3.183594 14.914062 3.089844 C 14.492188 2.546875 13.855469 2.378906 13.257812 2.136719 C 12.996094 2.03125 12.730469 1.941406 12.460938 1.855469 C 11.382812 1.511719 10.296875 1.316406 9.175781 1.667969 C 9.023438 1.714844 8.859375 1.730469 8.699219 1.753906 C 8.621094 1.765625 8.53125 1.746094 8.457031 1.765625 C 7.855469 1.941406 7.226562 1.996094 6.613281 2.132812 C 6.0625 2.257812 5.546875 2.507812 4.984375 2.597656 C 4.867188 2.617188 4.761719 2.683594 4.652344 2.738281 C 4.359375 2.882812 4.078125 3.039062 3.785156 3.175781 C 3.460938 3.328125 3.214844 3.550781 3.035156 3.859375 C 2.765625 4.328125 2.539062 4.828125 2.210938 5.269531 C 2.121094 5.394531 2.082031 5.5625 2.039062 5.71875 C 1.859375 6.382812 1.753906 7.0625 1.664062 7.742188 C 1.621094 8.050781 1.664062 8.324219 1.851562 8.597656 C 2.121094 8.996094 2.371094 9.414062 2.53125 9.875 C 2.566406 9.96875 2.585938 10.070312 2.59375 10.167969 C 2.597656 10.222656 2.570312 10.273438 2.484375 10.253906 C 2.292969 10.207031 2.167969 10.070312 2.046875 9.9375 C 1.890625 9.761719 1.746094 9.574219 1.546875 9.332031 C 1.46875 9.707031 1.429688 10.015625 1.410156 10.328125 C 1.398438 10.484375 1.472656 10.601562 1.566406 10.707031 C 1.75 10.921875 1.945312 11.128906 2.125 11.347656 C 2.265625 11.519531 2.402344 11.695312 2.519531 11.882812 C 2.582031 11.980469 2.613281 12.101562 2.640625 12.21875 C 2.65625 12.269531 2.644531 12.347656 2.609375 12.386719 C 2.5625 12.445312 2.507812 12.390625 2.464844 12.351562 C 2.132812 12.054688 1.800781 11.757812 1.464844 11.457031 C 1.328125 11.476562 1.355469 11.59375 1.359375 11.683594 C 1.359375 11.867188 1.378906 12.046875 1.386719 12.226562 C 1.390625 12.378906 1.449219 12.449219 1.601562 12.53125 C 2.003906 12.742188 2.253906 13.125 2.519531 13.480469 C 2.710938 13.738281 2.707031 13.761719 2.773438 14.183594 C 2.609375 14.21875 2.515625 14.089844 2.40625 14.015625 C 2.226562 13.886719 2.066406 13.730469 1.886719 13.597656 C 1.765625 13.511719 1.691406 13.285156 1.515625 13.367188 C 1.386719 13.429688 1.453125 13.625 1.457031 13.761719 C 1.464844 14.121094 1.492188 14.484375 1.511719 14.847656 C 1.511719 14.847656 1.511719 14.871094 1.511719 14.871094 C 1.550781 15.027344 1.589844 15.183594 1.628906 15.339844 C 1.695312 15.59375 1.726562 15.859375 1.828125 16.097656 C 2.140625 16.816406 2.480469 17.527344 2.8125 18.238281 C 2.84375 18.300781 2.875 18.394531 2.980469 18.332031 L 2.976562 18.324219 C 2.898438 18.453125 2.9375 18.53125 3.101562 18.574219 C 3.101562 18.574219 3.097656 18.570312 3.097656 18.570312 Z M 3.097656 18.570312 " fill-opacity="1" fill-rule="nonzero"/></g><path fill="#000000" d="M 6.011719 12.390625 C 5.980469 11.53125 6.082031 10.730469 6.144531 9.925781 C 6.167969 9.585938 6.183594 9.257812 6.019531 8.929688 C 5.863281 8.621094 5.96875 8.289062 6.105469 7.996094 C 6.257812 7.667969 6.402344 7.335938 6.546875 7.003906 C 6.785156 6.476562 7.238281 6.117188 7.707031 5.792969 C 7.863281 5.6875 8.054688 5.675781 8.234375 5.671875 C 9.492188 5.660156 10.582031 6.070312 11.421875 7.023438 C 11.761719 7.410156 11.964844 7.867188 11.996094 8.394531 C 12.019531 8.734375 12.019531 9.078125 12.042969 9.417969 C 12.109375 10.324219 12.0625 11.230469 12.207031 12.128906 C 12.257812 12.425781 12.25 12.734375 12.230469 13.035156 C 12.203125 13.476562 12.15625 13.917969 12.089844 14.359375 C 11.988281 15.0625 11.621094 15.644531 11.15625 16.15625 C 10.785156 16.5625 10.359375 16.890625 9.804688 17.046875 C 9.1875 17.222656 8.351562 17.148438 7.816406 16.816406 C 7.625 16.695312 7.4375 16.578125 7.246094 16.46875 C 6.605469 16.09375 6.25 15.539062 6.15625 14.8125 C 6.054688 13.992188 5.953125 13.171875 6.011719 12.390625 Z M 11.273438 10.347656 C 11.167969 9.722656 11.269531 9.09375 11.175781 8.46875 C 11.097656 7.949219 10.859375 7.582031 10.480469 7.25 C 9.96875 6.804688 9.335938 6.652344 8.707031 6.496094 C 8.316406 6.402344 7.957031 6.5 7.660156 6.820312 C 7.453125 7.042969 7.253906 7.261719 7.152344 7.558594 C 7.085938 7.75 7 7.933594 6.90625 8.109375 C 6.808594 8.292969 6.742188 8.476562 6.730469 8.683594 C 6.714844 8.945312 6.6875 9.203125 6.671875 9.464844 C 6.636719 10.109375 6.601562 10.753906 6.554688 11.398438 C 6.46875 12.570312 6.507812 13.738281 6.75 14.894531 C 6.84375 15.34375 7.09375 15.652344 7.5 15.855469 C 7.699219 15.953125 7.902344 16.050781 8.09375 16.160156 C 8.691406 16.511719 9.542969 16.480469 10.089844 16.039062 C 10.753906 15.503906 11.257812 14.859375 11.296875 13.960938 C 11.300781 13.859375 11.324219 13.761719 11.335938 13.660156 C 11.40625 13.074219 11.433594 12.496094 11.320312 11.910156 C 11.277344 11.675781 11.28125 11.429688 11.277344 11.1875 C 11.269531 10.90625 11.273438 10.621094 11.273438 10.347656 Z M 11.273438 10.347656 " fill-opacity="1" fill-rule="nonzero"/><path fill="#000000" d="M 16.191406 9.296875 C 16.191406 9.636719 16.199219 9.980469 16.191406 10.324219 C 16.1875 10.460938 16.167969 10.605469 16.128906 10.738281 C 16.089844 10.859375 15.988281 10.933594 15.851562 10.941406 C 15.71875 10.945312 15.621094 10.886719 15.558594 10.769531 C 15.457031 10.585938 15.457031 10.382812 15.457031 10.183594 C 15.453125 9.699219 15.449219 9.214844 15.449219 8.730469 C 15.453125 7.957031 15.300781 7.207031 15.050781 6.480469 C 14.871094 5.949219 14.644531 5.429688 14.429688 4.910156 C 14.3125 4.628906 14.128906 4.386719 13.917969 4.164062 C 13.839844 4.085938 13.824219 3.988281 13.894531 3.890625 C 13.964844 3.796875 14.109375 3.773438 14.222656 3.839844 C 14.496094 3.992188 14.695312 4.222656 14.851562 4.484375 C 15.398438 5.386719 15.828125 6.332031 16.039062 7.371094 C 16.164062 8.007812 16.191406 8.652344 16.191406 9.296875 Z M 16.191406 9.296875 " fill-opacity="1" fill-rule="nonzero"/><path fill="#000000" d="M 1.511719 14.871094 C 1.511719 14.871094 1.507812 14.847656 1.507812 14.847656 C 1.566406 14.863281 1.621094 14.871094 1.648438 14.800781 C 1.832031 14.285156 1.945312 14.261719 2.308594 14.65625 C 2.515625 14.875 2.726562 15.09375 2.921875 15.324219 C 3.109375 15.542969 3.246094 15.78125 3.167969 16.128906 C 2.628906 15.738281 2.050781 15.445312 1.710938 14.867188 C 1.664062 14.785156 1.578125 14.800781 1.511719 14.871094 Z M 1.511719 14.871094 " fill-opacity="1" fill-rule="nonzero"/><path fill="#000000" d="M 15.894531 19.488281 C 15.726562 19.492188 15.554688 19.316406 15.550781 19.136719 C 15.542969 18.839844 15.921875 18.304688 16.210938 18.199219 C 16.460938 18.113281 16.734375 18.320312 16.746094 18.609375 C 16.761719 18.976562 16.269531 19.484375 15.894531 19.488281 Z M 15.894531 19.488281 " fill-opacity="1" fill-rule="nonzero"/><path fill="#000000" d="M 16.417969 12.628906 C 16.398438 12.714844 16.394531 12.816406 16.355469 12.90625 C 16.285156 13.101562 16.058594 13.203125 15.863281 13.148438 C 15.691406 13.097656 15.554688 12.921875 15.566406 12.742188 C 15.578125 12.539062 15.640625 12.347656 15.777344 12.191406 C 15.855469 12.097656 15.960938 12.019531 16.089844 12.042969 C 16.238281 12.070312 16.34375 12.171875 16.378906 12.320312 C 16.40625 12.414062 16.402344 12.515625 16.417969 12.628906 Z M 16.417969 12.628906 " fill-opacity="1" fill-rule="nonzero"/><path fill="#000000" d="M 3.535156 17.5625 C 3.3125 17.421875 3.089844 17.292969 2.875 17.148438 C 2.691406 17.019531 2.558594 16.84375 2.519531 16.613281 C 2.5 16.480469 2.65625 16.316406 2.777344 16.355469 C 3.082031 16.453125 3.253906 16.710938 3.4375 16.941406 C 3.574219 17.113281 3.671875 17.3125 3.535156 17.5625 Z M 3.535156 17.5625 " fill-opacity="1" fill-rule="nonzero"/><path fill="#000000" d="M 2.925781 7.757812 C 2.667969 7.75 2.28125 7.410156 2.246094 7.164062 C 2.226562 6.992188 2.425781 6.8125 2.59375 6.855469 C 2.851562 6.917969 3.148438 7.234375 3.183594 7.476562 C 3.199219 7.589844 3.042969 7.761719 2.925781 7.757812 Z M 2.925781 7.757812 " fill-opacity="1" fill-rule="nonzero"/><path fill="#000000" d="M 2.980469 18.332031 C 3.117188 18.246094 2.972656 18.113281 3.035156 18.007812 C 3.09375 17.917969 3.152344 17.84375 3.265625 17.847656 C 3.546875 17.855469 3.894531 18.144531 3.964844 18.421875 C 4.003906 18.574219 3.875 18.707031 3.722656 18.660156 C 3.550781 18.609375 3.386719 18.539062 3.214844 18.476562 C 3.128906 18.445312 3.128906 18.53125 3.097656 18.570312 C 3.097656 18.570312 3.101562 18.574219 3.101562 18.574219 C 3.128906 18.535156 3.210938 18.542969 3.175781 18.457031 C 3.136719 18.363281 3.09375 18.292969 2.976562 18.324219 Z M 2.980469 18.332031 " fill-opacity="1" fill-rule="nonzero"/><path fill="#000000" d="M 4.15625 19.035156 C 4.277344 19.035156 4.390625 19.054688 4.488281 19.136719 C 4.609375 19.238281 4.738281 19.332031 4.859375 19.433594 C 4.9375 19.5 4.90625 19.621094 4.804688 19.671875 C 4.75 19.695312 4.691406 19.734375 4.636719 19.730469 C 4.371094 19.703125 4.136719 19.613281 3.96875 19.394531 C 3.90625 19.3125 3.878906 19.21875 3.945312 19.121094 C 3.996094 19.046875 4.078125 19.042969 4.15625 19.035156 Z M 4.15625 19.035156 " fill-opacity="1" fill-rule="nonzero"/><path fill="#000000" d="M 3.621094 5.871094 C 3.589844 5.859375 3.507812 5.84375 3.441406 5.804688 C 3.324219 5.742188 3.253906 5.5625 3.289062 5.441406 C 3.320312 5.34375 3.375 5.261719 3.476562 5.222656 C 3.625 5.171875 3.761719 5.199219 3.863281 5.316406 C 3.910156 5.375 3.949219 5.453125 3.964844 5.527344 C 4.011719 5.734375 3.878906 5.882812 3.621094 5.871094 Z M 3.621094 5.871094 " fill-opacity="1" fill-rule="nonzero"/></g></g></svg>